/* XPM */
static char const * d20_Normal_xpm[] = {
"64 64 212 2",
"  	c None",
". 	c #62EAD2",
"+ 	c #AAFBCB",
"@ 	c #5CE8D2",
"# 	c #5BE8D1",
"$ 	c #61E9D2",
"% 	c #ABFBCA",
"& 	c #ABFCCA",
"* 	c #5BE8D2",
"= 	c #ABFCCB",
"- 	c #5CE8D3",
"; 	c #5CE9D2",
"> 	c #ABFBCB",
", 	c #46C1DA",
"' 	c #4CCCDA",
") 	c #4BCCDA",
"! 	c #59C9DD",
"~ 	c #C0CDE8",
"{ 	c #C6CFE7",
"] 	c #C6CFE8",
"^ 	c #D0BFEB",
"/ 	c #2C9CCE",
"( 	c #3BAFE0",
"_ 	c #7A8CF0",
": 	c #B384F8",
"< 	c #DB9BF8",
"[ 	c #DB9BF9",
"} 	c #EB8ADF",
"| 	c #1887BB",
"1 	c #3AAEDF",
"2 	c #57A4E7",
"3 	c #9272F8",
"4 	c #9372F8",
"5 	c #CF94F8",
"6 	c #DD99F6",
"7 	c #F577C5",
"8 	c #1283B7",
"9 	c #31A1D3",
"0 	c #3DAFE1",
"a 	c #8581F4",
"b 	c #9271F8",
"c 	c #A67CF8",
"d 	c #E78EE5",
"e 	c #F673C0",
"f 	c #2390C4",
"g 	c #679AEB",
"h 	c #9371F8",
"i 	c #C48EF8",
"j 	c #F07ED0",
"k 	c #1282B7",
"l 	c #1482B7",
"m 	c #38ACDD",
"n 	c #45ACE2",
"o 	c #8D78F6",
"p 	c #9271F7",
"q 	c #9C76F8",
"r 	c #D899F8",
"s 	c #E097F3",
"t 	c #F573C0",
"u 	c #1280B6",
"v 	c #2E9DD0",
"w 	c #7690EF",
"x 	c #B886F8",
"y 	c #DC9BF9",
"z 	c #E98AE0",
"A 	c #F572BF",
"B 	c #1F8CC0",
"C 	c #52A6E5",
"D 	c #9572F8",
"E 	c #D296F8",
"F 	c #F27ACA",
"G 	c #37A9DB",
"H 	c #3CAFE0",
"I 	c #8185F3",
"J 	c #AB7FF8",
"K 	c #E294EF",
"L 	c #1281B6",
"M 	c #2B99CC",
"N 	c #629EE9",
"O 	c #C890F8",
"P 	c #EB87DB",
"Q 	c #1A87BC",
"R 	c #41ADE2",
"S 	c #8B7BF6",
"T 	c #9F78F8",
"U 	c #D99AF9",
"V 	c #DC9BF8",
"W 	c #F477C6",
"X 	c #34A5D7",
"Y 	c #7194EE",
"Z 	c #BC89F8",
"` 	c #E491EA",
" .	c #2795C8",
"..	c #4DA9E4",
"+.	c #9074F7",
"@.	c #9673F8",
"#.	c #D597F8",
"$.	c #ED83D6",
"%.	c #1784B9",
"&.	c #7E89F1",
"*.	c #B082F8",
"=.	c #DD9AF6",
"-.	c #F574C2",
";.	c #5DA1E8",
">.	c #CC92F8",
",.	c #3EAEE1",
"'.	c #887EF5",
").	c #A37AF8",
"!.	c #DA9BF9",
"~.	c #F07FD0",
"{.	c #1482B8",
"].	c #39ACDD",
"^.	c #6C98EC",
"/.	c #C18CF8",
"(.	c #2E9ED0",
"_.	c #48ABE3",
":.	c #8F76F7",
"<.	c #9975F8",
"[.	c #D799F8",
"}.	c #E98BE1",
"|.	c #B484F8",
"1.	c #F27BCB",
"2.	c #9172F7",
"3.	c #9472F8",
"4.	c #E295EF",
"5.	c #F572C0",
"6.	c #3CAFE1",
"7.	c #A77DF8",
"8.	c #EB87DC",
"9.	c #679BEB",
"0.	c #C58EF8",
"a.	c #44ACE2",
"b.	c #9371F7",
"c.	c #7591EF",
"d.	c #B987F8",
"e.	c #1784BA",
"f.	c #51A7E5",
"g.	c #9173F7",
"h.	c #F575C3",
"i.	c #31A2D4",
"j.	c #8185F2",
"k.	c #2491C4",
"l.	c #619FE9",
"m.	c #C991F8",
"n.	c #F07FD1",
"o.	c #286EB7",
"p.	c #3060B5",
"q.	c #3062B6",
"r.	c #8561DF",
"s.	c #9655E5",
"t.	c #9656E5",
"u.	c #AC5EE1",
"v.	c #E357B9",
"w.	c #E356B8",
"x.	c #EA62BD",
"y.	c #431EB2",
"z.	c #431EB1",
"A.	c #521EB5",
"B.	c #921ECC",
"C.	c #991ECF",
"D.	c #991ECE",
"E.	c #A11ECB",
"F.	c #C81EB3",
"G.	c #CC1EAF",
"H.	c #CC1EB0",
"I.	c #441EB2",
"J.	c #561EB6",
"K.	c #931ECC",
"L.	c #A01ECC",
"M.	c #C61EB4",
"N.	c #CD1EB0",
"O.	c #5A1EB7",
"P.	c #941ECC",
"Q.	c #9F1ECC",
"R.	c #C61EB5",
"S.	c #441FB2",
"T.	c #5E1EB8",
"U.	c #961ECD",
"V.	c #9D1ECD",
"W.	c #C41EB6",
"X.	c #CD1FB0",
"Y.	c #601EB9",
"Z.	c #971ECD",
"`.	c #C21EB7",
" +	c #641EBA",
".+	c #971ECE",
"++	c #9B1ECE",
"@+	c #C11EB8",
"#+	c #681EBB",
"$+	c #981ECE",
"%+	c #BF1EBA",
"&+	c #6C1EBD",
"*+	c #9A1ECE",
"=+	c #BE1EBA",
"-+	c #701EBE",
";+	c #BB1EBC",
">+	c #731EBF",
",+	c #B91EBE",
"'+	c #771EC0",
")+	c #B81EBE",
"!+	c #7B1EC2",
"~+	c #B41EC1",
"{+	c #7F1EC3",
"]+	c #B31EC1",
"^+	c #821EC5",
"/+	c #B01EC3",
"(+	c #471EB3",
"_+	c #841EC6",
":+	c #AE1EC5",
"<+	c #CC1EB1",
"[+	c #8D1ECA",
"}+	c #A61EC9",
"                                                                                                                                ",
"                                                                                                                                ",
"                                                              . +                                                               ",
"                                                          @ # $ + % &                                                           ",
"                                                        * # # $ + % & %                                                         ",
"                                                    @ # # # # $ + % % % & &                                                     ",
"                                                  * # # # # # $ + % & % & & &                                                   ",
"                                              @ # # # # # # # $ + & % % & % & & =                                               ",
"                                            # # # # # # # # # $ + & % % & & & & % %                                             ",
"                                        @ # # # # # # # # # # $ + % % % & & % & & % & =                                         ",
"                                    - # # # # # # # # # # # # $ + % & = % % & % % & % % &                                       ",
"                                  @ # # # # # # # # # # # # # $ + % % % % % & % = % & % & & &                                   ",
"                              ; # # # # # # # # # # # # # # # $ + % & % % & & % % & & % & % & % =                               ",
"                            * # # # # # # # # # # # # # # # # $ + % % % & % & & % % % % % & & & % &                             ",
"                        @ # # # # # # # # # # # # # # # # # # $ + % & % & & % & & % % % % & & % & & & &                         ",
"                      * # # # # # # # # # # # # # # # # # # # $ + & % % & % & & & & > % & & % % & % % % =                       ",
"                  @ # # # # # # # # # # # # # # # # # # # # # $ + & % % & & & & % % & % & % & % % & % & & % =                   ",
"                * # # # # # # # # # # # # # # # # # # # # # # $ + % % % & & % & & % & % % & & % % % % % & % % &                 ",
"            , ' ) ' ' ' ' ) ' ' ' ' ' ) ' ) ' ) ' ) ) ' ' ' ) ! ~ { { { ] { { { { { { { { { { { { ] { { { { { { { ^             ",
"            / ( ( ( ( ( ( ( ( ( ( ( ( ( ( ( ( ( ( ( ( ( ( ( ( _ : < < < < < [ < [ < < [ [ < [ < < < < < < < < < < }             ",
"            | 1 ( ( ( ( ( ( ( ( ( ( ( ( ( ( ( ( ( ( ( ( ( ( 2 3 4 5 < < < [ [ < < [ < [ [ < < < < [ < < [ < < < 6 7             ",
"            8 9 ( ( ( ( ( ( ( ( ( ( ( ( ( ( ( ( ( ( ( ( ( 0 a b b c < < < < [ [ < < < < < < [ < < < [ [ < < [ < d e             ",
"            8 f ( ( ( ( ( ( ( ( ( ( ( ( ( ( ( ( ( ( ( ( ( g b h b b i < < [ < < [ < < < < < < < < [ [ < < < < [ j e             ",
"            k l m ( ( ( ( ( ( ( ( ( ( ( ( ( ( ( ( ( ( ( n o h p b h q r [ < [ [ < [ < < < [ [ < < < < < [ < < s t e             ",
"            8 u v ( ( ( ( ( ( ( ( ( ( ( ( ( ( ( ( ( ( ( w h h b h h h x < [ < < < < [ < < < < < < < < y < < < z A e             ",
"            8 u B ( ( ( ( ( ( ( ( ( ( ( ( ( ( ( ( ( ( C 3 b h b b b p D E < [ [ [ [ < < < < < < [ < < < [ < < F A e             ",
"            8 u u G ( ( ( ( ( ( ( ( ( ( ( ( ( ( ( ( H I b b p b h h h b J [ < < < [ < < < < < < < [ < < [ < K A A t             ",
"            8 u L M ( ( ( ( ( ( ( ( ( ( ( ( ( ( ( ( N b h h p h b h b b b O [ < [ < < [ [ < [ < < < < < < < P A A e             ",
"            8 u u Q ( ( ( ( ( ( ( ( ( ( ( ( ( ( ( R S b b h h b b h h b b T U < < [ < [ [ < < < < [ < < [ V W A A e             ",
"            8 u u u X ( ( ( ( ( ( ( ( ( ( ( ( ( ( Y b h h b h b b h b b h b Z [ < < < < < < [ < < < [ [ < ` A A A e             ",
"            8 L u u  .( ( ( ( ( ( ( ( ( ( ( ( ( ..+.h b b b b h b b h b b b @.#.[ < < < < < < < < [ [ < < $.A A A e             ",
"            k u u u %.1 ( ( ( ( ( ( ( ( ( ( ( ( &.h b b b h h p b h b p h p h *.< [ < < < [ [ < < < < < =.-.A A A e             ",
"            8 u u L u 9 ( ( ( ( ( ( ( ( ( ( ( ;.b b b b h h h b h h h b b h h h >.< [ < < < < < < < < y d A A A A e             ",
"            8 u L u u f ( ( ( ( ( ( ( ( ( ( ,.'.h h b h h b h b b b p b h h b b ).!.< < < < < < [ < < < ~.A A A A e             ",
"            8 u u u u {.].( ( ( ( ( ( ( ( ( ^.b h b h b b b p b h h h b b b h b b /.< < < < < < < [ < s t A A A A t             ",
"            8 u L u L u (.( ( ( ( ( ( ( ( _.:.h b b h h h h p h b h b b b b b b h <.[.[ [ < [ < < < < }.A A A A A e             ",
"            8 u u u L u B ( ( ( ( ( ( ( ( _ h b h h h b b h h b b h h b b b b b h h |.[ [ < < < < [ < 1.A A A A A e             ",
"            8 u u u u L u G ( ( ( ( ( ( 2 2.b b b b b h h b h b b h b b h b h b b b 3.5 < < [ < < < 4.5.A A A A A e             ",
"            8 L u u u u u M ( ( ( ( ( 6.a p h h h b h b b b b h b b h b b b b h h p b 7.< < < < < [ 8.A A A A A A e             ",
"            k u u u L u u Q ( ( ( ( ( 9.h b h h b h b b b h h p b h b p h p h h h h p b 0.[ [ < < V W A A A A A A e             ",
"            8 u u L u u u u X ( ( ( a.o b.b h b b b b b h h h b h h h b b h h b b b h b q r < < < ` A A A A A A A e             ",
"            8 u L u u u L u  .( ( ( c.b h h b h h h b h h b h b b b p b h h b b b b b b b d.< < [ $.A A A A A A A e             ",
"            8 u u u u u u u e.1 ( f.g.h b b h b h b h b b b p b h h h b b b h b b h b h h D E < =.h.A A A A A A A t             ",
"            8 u L u L u L L u i.H j.b b h h b h b b h h h h p h b h b b b b b b h b h b h b J < d A A A A A A A A e             ",
"            8 u u u L u u u u k.l.h b b h b h b h h h b b h h b b h h b b b b b h h b b h b h m.n.5.A A A A A A A e             ",
"            o.p.p.p.p.p.p.p.p.q.r.s.s.s.s.s.s.t.s.s.s.t.s.s.s.s.s.s.s.s.s.s.s.t.s.s.s.s.s.s.s.u.v.w.w.w.w.w.w.w.w.x.            ",
"                y.z.z.z.z.z.y.z.A.B.C.D.D.D.C.D.D.C.D.D.D.D.D.D.D.D.C.D.D.C.C.D.C.D.D.D.D.C.E.F.G.G.G.G.G.G.G.H.                ",
"                  I.y.z.z.y.z.z.z.J.K.D.D.C.C.C.D.D.D.C.C.D.D.D.C.C.C.D.C.D.C.C.D.C.D.D.D.L.M.G.G.G.G.G.G.G.N.                  ",
"                      y.z.z.z.z.z.z.O.P.D.D.D.C.D.C.D.C.D.D.C.C.D.D.C.D.D.C.D.C.D.D.C.D.Q.R.G.G.G.G.G.G.H.                      ",
"                        S.y.y.z.z.z.z.T.U.C.D.C.C.C.D.C.D.C.C.C.D.D.D.D.C.D.C.C.C.C.D.V.W.G.G.G.G.G.G.X.                        ",
"                            y.z.y.z.z.z.Y.Z.C.D.D.D.D.C.C.D.D.D.D.D.C.C.D.C.D.D.D.C.V.`.G.G.G.G.G.H.                            ",
"                              S.z.y.y.z.y. +.+C.D.D.D.C.C.D.D.C.D.D.D.D.D.D.C.D.C.++@+G.G.G.G.G.X.                              ",
"                                  y.z.z.z.y.#+$+D.D.C.C.D.C.D.C.C.D.D.D.D.C.C.C.++%+G.G.G.G.H.                                  ",
"                                      y.z.z.z.&+$+C.C.D.C.D.D.D.D.D.D.D.D.D.C.*+=+G.G.G.G.                                      ",
"                                        y.z.y.z.-+D.D.D.D.D.D.D.D.D.C.D.D.C.D.;+G.G.G.H.                                        ",
"                                            y.y.z.>+D.C.C.D.D.D.C.C.C.D.C.D.,+G.G.H.                                            ",
"                                              y.z.y.'+C.D.D.C.C.D.D.C.D.C.)+G.G.H.                                              ",
"                                                  y.z.!+D.C.C.C.D.D.D.D.~+G.G.                                                  ",
"                                                    I.y.{+D.D.D.D.D.C.]+G.N.                                                    ",
"                                                        I.^+D.C.D.D./+H.                                                        ",
"                                                          (+_+C.C.:+<+                                                          ",
"                                                              [+}+                                                              ",
"                                                                                                                                ",
"                                                                                                                                "};
